<?xml version="1.0" encoding="utf-8"?>
<!-- Generator: Adobe Illustrator 18.0.0, SVG Export Plug-In . SVG Version: 6.00 Build 0)  -->
<!DOCTYPE svg PUBLIC "-//W3C//DTD SVG 1.1//EN" "http://www.w3.org/Graphics/SVG/1.1/DTD/svg11.dtd">
<svg version="1.1" id="Capa_1" xmlns="http://www.w3.org/2000/svg" width="35" height="47" xmlns:xlink="http://www.w3.org/1999/xlink" x="0px" y="0px"
	 viewBox="0 0 61.3 36" enable-background="new 0 0 61.3 36" xml:space="preserve">
<polygon id="XMLID_9331_" fill="#C1304C" points="6.9,4.7 3.4,25.8 34.5,25.8 34.5,4.7 34.2,4.7 "/>
<path id="XMLID_9330_" fill="#1C1A20" d="M13.4,21.7c-3.2,0-5.9,2.4-7.1,5.8h14.2C19.3,24.1,16.5,21.7,13.4,21.7z"/>
<path id="XMLID_9329_" fill="#C1304C" d="M57.5,19c-0.1-1.3-1.2-1.7-1.2-1.7l-6.2-3.5l-1.9-9l0-0.1H34.5v21H56l0,0h1.5
	C57.5,25.8,57.6,20.3,57.5,19z"/>
<polygon id="XMLID_9328_" fill="#171F78" points="7.3,2.3 6.9,4.7 34.2,4.7 34.5,4.7 34.5,2.3 "/>
<path id="XMLID_9028_" fill="#171F78" d="M7.1,25.4C7.1,25.2,7,25,6.9,25H2.5c-0.1,0-0.2,0.2-0.2,0.4v1.3c0,0.2,0.1,0.4,0.2,0.4h4.4
	c0.1,0,0.2-0.2,0.2-0.4V25.4z"/>
<path id="XMLID_9023_" fill="none" stroke="#221E1F" stroke-width="0.7087" stroke-miterlimit="10" d="M27.7,17.3"/>
<path id="XMLID_9022_" fill="#171F78" d="M48.2,4.7l0-1.8c0-0.4-0.3-0.7-0.6-0.7H34.5v2.4H48.2z"/>
<polygon id="XMLID_9020_" fill="#A3CEE7" points="47,6 48.4,13.8 45.3,13.8 45.3,6 "/>
<rect id="XMLID_9019_" x="34.5" y="18.4" fill="#BE4017" width="0.1" height="0.8"/>
<polygon id="XMLID_9018_" fill="#E8BA2F" points="4.6,18.4 4.5,19.2 34.5,19.2 34.5,18.4 "/>
<rect id="XMLID_9017_" x="36.8" y="6" fill="#A3CEE7" width="7.1" height="8"/>
<polygon id="XMLID_9015_" fill="#86BFDE" points="36.8,6 36.8,13.9 43.9,6 "/>
<line id="XMLID_9014_" fill="#171F78" x1="34.5" y1="4.7" x2="34.5" y2="25.7"/>
<path id="XMLID_9012_" fill="#E8BA2F" d="M40.3,16.3c0-0.2-0.2-0.4-0.4-0.4h-1.5c-0.2,0-0.4,0.2-0.4,0.4l0,0c0,0.2,0.2,0.4,0.4,0.4
	h1.5C40.1,16.7,40.3,16.5,40.3,16.3L40.3,16.3z"/>
<g id="XMLID_8982_">
	<circle id="XMLID_9011_" fill="#302E36" cx="13.4" cy="28.3" r="5.7"/>
	<circle id="XMLID_9007_" fill="#5C5963" cx="13.4" cy="28.3" r="3.8"/>
	<circle id="XMLID_9006_" fill="#E9E8EC" cx="13.4" cy="28.3" r="3.4"/>
	<circle id="XMLID_9005_" fill="#302E36" cx="13.4" cy="28.3" r="2.1"/>
	<g id="XMLID_8983_">
		<g id="XMLID_9001_">
			<circle id="XMLID_9004_" fill="#5C5963" cx="13.4" cy="25.7" r="0.3"/>
			<circle id="XMLID_9002_" fill="#5C5963" cx="13.4" cy="30.9" r="0.3"/>
		</g>
		<g id="XMLID_8998_">
			<circle id="XMLID_9000_" fill="#5C5963" cx="12.1" cy="26" r="0.3"/>
			<circle id="XMLID_8999_" fill="#5C5963" cx="14.7" cy="30.6" r="0.3"/>
		</g>
		<g id="XMLID_8994_">
			<circle id="XMLID_8997_" fill="#5C5963" cx="11.2" cy="27" r="0.3"/>
			<circle id="XMLID_8995_" fill="#5C5963" cx="15.7" cy="29.6" r="0.3"/>
		</g>
		<g id="XMLID_8990_">
			<circle id="XMLID_8993_" fill="#5C5963" cx="10.8" cy="28.3" r="0.3"/>
			<circle id="XMLID_8992_" fill="#5C5963" cx="16" cy="28.3" r="0.3"/>
		</g>
		<g id="XMLID_8987_">
			<circle id="XMLID_8989_" fill="#5C5963" cx="11.2" cy="29.6" r="0.3"/>
			<circle id="XMLID_8988_" fill="#5C5963" cx="15.7" cy="27" r="0.3"/>
		</g>
		<g id="XMLID_8984_">
			<circle id="XMLID_8986_" fill="#5C5963" cx="12.1" cy="30.6" r="0.3"/>
			<circle id="XMLID_8985_" fill="#5C5963" cx="14.7" cy="26" r="0.3"/>
		</g>
	</g>
</g>
<path id="XMLID_8981_" fill="#1C1A20" d="M45.5,21.9c-3.6,0-6.7,2.1-8.1,5.2h16.1C52.2,24.1,49.1,21.9,45.5,21.9z"/>
<path id="XMLID_8979_" fill="#171F78" d="M19.6,28.1h2c0-0.8-0.2-1.6-0.4-2.4H19C19.4,26.5,19.6,27.3,19.6,28.1z"/>
<path id="XMLID_8978_" fill="#171F78" d="M5.3,28.1h2c0-0.8,0.2-1.6,0.5-2.4H5.7C5.4,26.5,5.3,27.3,5.3,28.1z"/>
<path id="XMLID_8976_" fill="#171F78" d="M13.4,20.1c-3.6,0-6.7,2.4-7.7,5.6h2.1c1-2.1,3.1-3.6,5.6-3.6c2.5,0,4.6,1.5,5.6,3.6h2.1
	C20.1,22.5,17,20.1,13.4,20.1z"/>
<path id="XMLID_8975_" fill="#171F78" d="M37.3,28.1h2c0-0.8,0.2-1.6,0.5-2.4h-2.1C37.5,26.5,37.3,27.3,37.3,28.1z"/>
<path id="XMLID_8973_" fill="#171F78" d="M51.6,28.1h2c0-0.8-0.2-1.6-0.4-2.4h-2.1C51.4,26.5,51.6,27.3,51.6,28.1z"/>
<path id="XMLID_8972_" fill="#171F78" d="M45.5,20.1c-3.6,0-6.7,2.4-7.7,5.6h2.1c1-2.1,3.1-3.6,5.6-3.6c2.5,0,4.6,1.5,5.6,3.6h2.1
	C52.2,22.5,49.1,20.1,45.5,20.1z"/>
<g id="XMLID_8942_">
	<circle id="XMLID_8971_" fill="#302E36" cx="45.5" cy="28.3" r="5.7"/>
	<circle id="XMLID_8970_" fill="#5C5963" cx="45.5" cy="28.3" r="3.8"/>
	<circle id="XMLID_8969_" fill="#E9E8EC" cx="45.5" cy="28.3" r="3.4"/>
	<circle id="XMLID_8968_" fill="#302E36" cx="45.5" cy="28.3" r="2.1"/>
	<g id="XMLID_8943_">
		<g id="XMLID_8964_">
			<circle id="XMLID_8967_" fill="#5C5963" cx="45.5" cy="25.7" r="0.3"/>
			<circle id="XMLID_8965_" fill="#5C5963" cx="45.5" cy="30.9" r="0.3"/>
		</g>
		<g id="XMLID_8958_">
			<circle id="XMLID_8962_" fill="#5C5963" cx="44.2" cy="26" r="0.3"/>
			<circle id="XMLID_8961_" fill="#5C5963" cx="46.8" cy="30.6" r="0.3"/>
		</g>
		<g id="XMLID_8955_">
			<circle id="XMLID_8957_" fill="#5C5963" cx="43.2" cy="27" r="0.3"/>
			<circle id="XMLID_8956_" fill="#5C5963" cx="47.7" cy="29.6" r="0.3"/>
		</g>
		<g id="XMLID_8951_">
			<circle id="XMLID_8954_" fill="#5C5963" cx="42.9" cy="28.3" r="0.3"/>
			<circle id="XMLID_8953_" fill="#5C5963" cx="48.1" cy="28.3" r="0.3"/>
		</g>
		<g id="XMLID_8948_">
			<circle id="XMLID_8950_" fill="#5C5963" cx="43.2" cy="29.6" r="0.3"/>
			<circle id="XMLID_8949_" fill="#5C5963" cx="47.7" cy="27" r="0.3"/>
		</g>
		<g id="XMLID_8945_">
			<circle id="XMLID_8947_" fill="#5C5963" cx="44.2" cy="30.6" r="0.3"/>
			<circle id="XMLID_8946_" fill="#5C5963" cx="46.8" cy="26" r="0.3"/>
		</g>
	</g>
</g>
<path id="XMLID_8939_" fill="#171F78" d="M58.8,25.2c0-0.3-0.2-0.6-0.5-0.6h-5.8c-0.3,0-0.5,0.3-0.5,0.6v1.2c0,0.3,0.2,0.6,0.5,0.6
	h5.8c0.3,0,0.5-0.3,0.5-0.6V25.2z"/>
<path id="XMLID_8938_" fill="#171F78" d="M38.8,25.4c0-0.2-0.1-0.4-0.3-0.4H20.3c-0.2,0-0.3,0.2-0.3,0.4v1.3c0,0.2,0.1,0.4,0.3,0.4
	h18.3c0.2,0,0.3-0.2,0.3-0.4V25.4z"/>
<rect id="XMLID_2_" x="24.1" y="6" fill="#A3CEE7" width="7.1" height="8"/>
<polygon id="XMLID_1_" fill="#86BFDE" points="24.1,6 24.1,13.9 31.2,6 "/>
<rect id="XMLID_4_" x="13.3" y="6" fill="#A3CEE7" width="7.1" height="8"/>
<polygon id="XMLID_3_" fill="#86BFDE" points="13.3,6 13.3,13.9 20.3,6 "/>
</svg>
